<svg width="88" height="22" xmlns="http://www.w3.org/2000/svg">
 <!-- Created with Method Draw - http://github.com/duopixel/Method-Draw/ -->

 <g>
  <title>background</title>
 </g>
 <g>
  <title>Layer 1</title>
  <g stroke="null" id="svg_6">
   <path stroke="null" id="svg_4" d="m87.23626,20.21264a0.39691,0.39691 0 0 0 0.40022,-0.41974c0,-0.29768 -0.1796,-0.43991 -0.54807,-0.43991l-0.59537,0l0,1.55855l0.22393,0l0,-0.67938l0.27519,0l0.00628,0.00827l0.42701,0.67111l0.23947,0l-0.45943,-0.6946l0.03076,-0.0043zm-0.25899,-0.15612l-0.25965,0l0,-0.5269l0.32911,0c0.17001,0 0.36384,0.02778 0.36384,0.25039c0,0.25601 -0.19614,0.27652 -0.43462,0.27652m-86.97594,-16.88535l3.3053,0l0,12.0397l6.11908,0l0,3.05028l-9.42437,0l0,-15.08998zm10.88568,4.85855l3.17531,0l0,10.22581l-3.17531,0l0,-10.22581zm1.58765,-5.0838a1.84201,1.84201 0 1 1 -1.84234,1.84201a1.84201,1.84201 0 0 1 1.84234,-1.84201m14.87036,0.22293l3.17531,0l0,9.0182l3.59868,-4.16197l3.89306,0l-4.16759,4.73418l4.07994,5.50056l-3.99096,0l-3.37079,-5.05469l-0.04168,0l0,5.05403l-3.17531,0l-0.00066,-15.09031zm-11.52206,4.86186l3.04929,0l0,1.39747l0.04333,0a3.33573,3.33573 0 0 1 3.00662,-1.65182c3.21996,0 3.81268,2.11852 3.81268,4.87079l0,5.60772l-3.17531,0l0,-4.97167c0,-1.18677 -0.02183,-2.71224 -1.65381,-2.71224c-1.6505,0 -1.90518,1.29228 -1.90518,2.62591l0,5.05668l-3.17531,0l-0.00232,-10.22283z"/>
   <path stroke="null" id="svg_5" d="m44.69774,11.95321a1.90386,1.90386 0 0 0 -1.94951,-1.94818a2.11886,2.11886 0 0 0 -2.24388,1.94818l4.19339,0zm2.68975,4.53143a5.59284,5.59284 0 0 1 -4.34223,2.03451c-3.17531,0 -5.71754,-2.11952 -5.71754,-5.40166c0,-3.28214 2.5419,-5.40067 5.71754,-5.40067c2.96792,0 4.82911,2.11687 4.82911,5.40067l0,0.99559l-7.37002,0a2.37189,2.37189 0 0 0 2.39306,1.99085a2.70993,2.70993 0 0 0 2.26604,-1.24962l2.22404,1.63032zm7.10541,-5.98314c-1.58765,0 -2.54024,1.06009 -2.54024,2.60474s0.95226,2.60574 2.54024,2.60574s2.54256,-1.05844 2.54256,-2.60574s-0.95292,-2.60474 -2.54256,-2.60474m5.46583,7.75205l-2.92327,0l0,-1.35612l-0.04333,0a3.99262,3.99262 0 0 1 -3.15678,1.61014c-3.05094,0 -5.06064,-2.20188 -5.06064,-5.31566c0,-2.85976 1.7785,-5.48567 4.7021,-5.48567c1.31411,0 2.54157,0.35954 3.26163,1.35612l0.04168,0l0,-5.89449l3.17828,0l0.00033,15.08568zm21.43629,0.00595l-3.17531,0l0,-4.97266c0,-1.18578 -0.02117,-2.71224 -1.65149,-2.71224c-1.65381,0 -1.90684,1.29195 -1.90684,2.62591l0,5.05866l-3.17531,0l0,-10.22581l3.04829,0l0,1.39747l0.04267,0a3.34069,3.34069 0 0 1 3.00761,-1.65182c3.21831,0 3.81169,2.11687 3.81169,4.87079l-0.00132,5.60971zm-13.49174,-11.62394a1.84267,1.84267 0 1 1 1.84234,-1.843a1.84267,1.84267 0 0 1 -1.84234,1.843m1.58765,11.62394l-3.17861,0l0,-10.22614l3.17861,0l0,10.22614zm13.48711,-18.25801l-18.26132,0a1.56384,1.56384 0 0 0 -1.58137,1.54465l0,18.33706a1.56483,1.56483 0 0 0 1.58137,1.54631l18.26132,0a1.56814,1.56814 0 0 0 1.58765,-1.54631l0,-18.33839a1.56715,1.56715 0 0 0 -1.58765,-1.54465m4.02635,18.65856a1.4613,1.4613 0 1 0 0.02811,0l-0.02811,0m0,2.75524a1.28137,1.28137 0 1 1 1.25987,-1.30254l0,0.0215a1.25392,1.25392 0 0 1 -1.22646,1.28038l-0.03308,0"/>
  </g>
 </g>
</svg>