<?xml version="1.0" encoding="iso-8859-1"?>
<!-- Generator: Adobe Illustrator 21.0.0, SVG Export Plug-In . SVG Version: 6.00 Build 0)  -->
<svg xmlns="http://www.w3.org/2000/svg" xmlns:xlink="http://www.w3.org/1999/xlink" version="1.1" id="Capa_1" x="0px" y="0px" viewBox="0 0 511 511" style="enable-background:new 0 0 511 511;" xml:space="preserve" width="512" height="512">
<g>
	<g>
		<path d="M31.971,159.5c0,16.482,12.727,30.039,28.868,31.382C74.162,232.657,113.337,263,159.471,263    c46,0,85.355-29.853,98.68-72.122c16.119-1.365,28.82-14.912,28.82-31.378c0-9.185-3.965-17.767-10.77-23.709    c1.656-7.34,2.77-15.522,2.77-24.291c0-26.989-11.322-54.386-31.063-75.166C232.162,19.759,204.037,0,159.471,0    C112.929,0,87.269,20.809,66.65,37.528c-5.368,4.353-10.437,8.464-15.339,11.731C34.244,60.638,6.86,64.02,6.591,64.052    c-6.092,0.719-8.769,8.405-4.423,12.752c15.991,15.991,32.048,21.243,44.99,22.124c-9.84,3.165-22.158,4.858-31.846,5.074    c-6.775,0.142-9.861,8.912-4.643,13.26c10.299,8.583,22.031,14.05,34.866,16.364C37.347,139.32,31.971,148.792,31.971,159.5z     M46.971,159.5c0-6.396,3.666-11.941,9-14.678V159.5c0,5.168,0.386,10.248,1.121,15.215    C51.153,172.215,46.971,166.337,46.971,159.5z M159.471,248c-48.799,0-88.5-39.701-88.5-88.5v-25.27    c6.732-0.801,13.667-2.322,20.774-4.584c13.753-4.376,25.221-10.557,32.352-14.919c-1.844,5.022-10.342,11.222-15.98,14.064    c-5.673,2.836-5.315,11.319,0.568,13.672c35.854,14.342,98.723-6.155,119.104-13.558l19.765,39.53    c-0.029,0.167-0.061,0.333-0.079,0.504C242.699,214.012,204.866,248,159.471,248z M271.971,159.5    c0,6.835-4.179,12.712-10.115,15.213c0.199-1.359,0.378-2.727,0.525-4.104c1.453-2.348,4.982-8.435,8.419-17.222    C271.562,155.302,271.971,157.37,271.971,159.5z M78.887,88.619c0.418-2.769-0.742-5.54-3.007-7.187    c-2.265-1.645-5.258-1.894-7.763-0.641c-0.232,0.115-20.19,9.739-43.395-4.93c10.499-2.543,24.121-6.93,34.909-14.122    c5.484-3.656,10.819-7.981,16.466-12.562C95.854,33.158,118.247,15,159.471,15c72.079,0,104.5,56.43,104.5,96.5    c0,16.033-4.406,30.032-8.401,39.428l-17.391-34.782c-1.722-3.443-5.915-5.04-9.494-3.609    c-0.677,0.271-59.874,23.688-99.24,19.523c4.599-4.296,8.739-9.762,9.759-16.048c0.725-4.469,0.198-11.188-6.43-17.815    c-2.635-2.635-6.812-2.929-9.796-0.701c-0.153,0.114-15.539,11.495-36.155,17.977c-17.875,5.619-33.898,5.941-47.882,0.997    C55.973,113.198,76.307,105.719,78.887,88.619z"/>
		<circle cx="199.471" cy="167.5" r="7.5"/>
		<circle cx="119.471" cy="167.5" r="7.5"/>
		<path d="M183.471,192h-48c-4.142,0-7.5,3.357-7.5,7.5c0,12.662,8.389,31.5,31.5,31.5s31.5-18.838,31.5-31.5    C190.971,195.357,187.613,192,183.471,192z M159.471,216c-8.925,0-13.031-4.587-14.915-9h29.829    C172.502,211.413,168.397,216,159.471,216z"/>
		<path d="M351.471,192h-12.25l-21.75-29c-1.977-2.636-5.556-3.678-8.64-2.52c-2.892,1.086-4.86,3.932-4.86,7.02v141.849    l-16.739-26.783C279.966,270.94,267.444,264,253.735,264H55.471c-21.78,0-39.5,17.72-39.5,39.5v48.765c0,4.143,3.358,7.5,7.5,7.5    s7.5-3.357,7.5-7.5V303.5c0-13.51,10.991-24.5,24.5-24.5h74.144l6.307,25.228l-7.941,150.878c-0.139,2.645,1.126,5.166,3.33,6.635    l24,16c2.492,1.661,5.828,1.662,8.32,0l24-16c2.203-1.469,3.469-3.99,3.33-6.635l-7.941-150.878L189.327,279h64.408    c8.503,0,16.27,4.305,20.776,11.515l30.6,48.96c1.782,2.853,5.352,4.181,8.564,3.192c3.112-0.958,5.296-3.909,5.296-7.167V247h33    v114.679c0,16.719-13.603,30.321-30.322,30.321c-9.261,0-17.891-4.147-23.677-11.38l-20.645-25.806    c-1.99-2.487-5.335-3.442-8.339-2.392c-3.006,1.055-5.018,3.892-5.018,7.077v144c0,4.143,3.357,7.5,7.5,7.5s7.5-3.357,7.5-7.5    V380.881l7.288,9.11c8.648,10.81,21.547,17.009,35.39,17.009c24.991,0,45.322-20.331,45.322-45.321V239.5v-32    C366.971,198.953,360.018,192,351.471,192z M159.471,462.486l-16.286-10.857L150.587,311h17.769l7.402,140.629L159.471,462.486z     M169.615,296h-20.288l-4.25-17h28.788L169.615,296z M318.971,232v-42l10.5,14c1.416,1.889,3.64,3,6,3h16    c0.275,0,0.5,0.225,0.5,0.5V232H318.971z"/>
		<path d="M23.471,380c-4.142,0-7.5,3.357-7.5,7.5v116c0,4.143,3.358,7.5,7.5,7.5s7.5-3.357,7.5-7.5v-116    C30.971,383.357,27.613,380,23.471,380z"/>
		<path d="M71.471,368c-4.142,0-7.5,3.357-7.5,7.5v128c0,4.143,3.358,7.5,7.5,7.5s7.5-3.357,7.5-7.5v-128    C78.971,371.357,75.613,368,71.471,368z"/>
		<path d="M479.854,22.588C460.432,8.022,434.726,0,407.471,0s-52.961,8.022-72.383,22.588    c-20.066,15.05-31.117,35.262-31.117,56.912c0,24.224,14.312,47.01,38.616,62.014l-6.08,15.201    c-2.323,5.809,3.396,11.875,9.336,9.9l32.435-10.813c9.454,2.122,19.265,3.197,29.193,3.197c27.255,0,52.961-8.022,72.383-22.588    c20.066-15.05,31.117-35.262,31.117-56.912S499.921,37.638,479.854,22.588z M407.471,144c-9.486,0-18.835-1.101-27.786-3.271    c-1.37-0.331-2.804-0.271-4.14,0.174l-19.105,6.369l2.493-6.232c1.421-3.554-0.062-7.607-3.439-9.405    c-22.869-12.175-36.522-31.664-36.522-52.134c0-35.565,39.701-64.5,88.5-64.5s88.5,28.935,88.5,64.5S456.27,144,407.471,144z"/>
		<path d="M407.471,72c-4.143,0-7.5,3.357-7.5,7.5v32c0,4.143,3.357,7.5,7.5,7.5s7.5-3.357,7.5-7.5v-32    C414.971,75.357,411.614,72,407.471,72z"/>
		<path d="M407.471,32c-4.143,0-7.5,3.357-7.5,7.5v8c0,4.143,3.357,7.5,7.5,7.5s7.5-3.357,7.5-7.5v-8    C414.971,35.357,411.614,32,407.471,32z"/>
	</g>
</g>















</svg>
